<svg id="Layer_1" data-name="Layer 1" xmlns="http://www.w3.org/2000/svg" viewBox="0 0 181.42 181.42"><defs><style>.cls-1{fill:#47583b;}.cls-2{fill:#d7ab58;}</style></defs><title>Logo_CapimDourado_[icon]</title><circle class="cls-1" cx="91.06" cy="90.06" r="86.39"/><path class="cls-2" d="M148.44,51.83a2,2,0,0,0-2,2v3.92c0,.32-.33,7.56-11.83,12.83V45.91a2,2,0,1,0-3.94,0V70.55c-11.46-5.25-11.81-12.45-11.82-12.83V53.8a2,2,0,1,0-3.94,0V105c0,.44.23,10.7,15.76,17.08v16.42H93.26V118.18C108.79,111.8,109,101.54,109,101.1v-67a2,2,0,0,0-3.94,0V38c0,.33-.32,7.56-11.82,12.83V26.21a2,2,0,1,0-3.94,0V50.84C77.86,45.59,77.5,38.39,77.49,38V34.09a2,2,0,0,0-3.94,0v67c0,.44.23,10.7,15.77,17.08v20.36H65.67a2,2,0,0,0,0,3.94h70.94a2,2,0,1,0,0-3.94h-2V122.12c15.54-6.38,15.77-16.64,15.77-17.08V53.8a2,2,0,0,0-2-2ZM93.26,55.11c5.82-2.39,9.52-5.31,11.82-8.08v6.75c0,.32-.32,7.56-11.82,12.83Zm0,15.77c5.82-2.39,9.52-5.32,11.82-8.08v6.74c0,.33-.32,7.56-11.82,12.83Zm0,15.76c5.82-2.39,9.52-5.31,11.82-8.07v6.74c0,.32-.32,7.56-11.82,12.83Zm0,15.77c5.82-2.39,9.52-5.31,11.82-8.08v6.74c0,.33-.32,7.57-11.82,12.84Zm-3.94,11.5c-11.46-5.26-11.82-12.46-11.83-12.83V94.33c2.31,2.77,6,5.69,11.83,8.08Zm0-15.77C77.86,92.89,77.5,85.69,77.49,85.31V78.57c2.31,2.76,6,5.68,11.83,8.07Zm0-15.77C77.86,77.12,77.5,69.92,77.49,69.55V62.8c2.31,2.76,6,5.69,11.83,8.08Zm0-15.76C77.86,61.36,77.5,54.15,77.49,53.78V47c2.31,2.77,6,5.69,11.83,8.08Zm41.38,51.24c-11.46-5.25-11.81-12.46-11.82-12.83V98.27c2.31,2.77,6,5.69,11.82,8.08Zm0-15.77c-11.46-5.25-11.81-12.45-11.82-12.83V82.51c2.31,2.76,6,5.69,11.82,8.08Zm0-15.76c-11.46-5.26-11.81-12.46-11.82-12.83V66.74c2.31,2.77,6,5.69,11.82,8.08ZM146.47,105c0,.32-.33,7.56-11.83,12.83v-11.5c5.83-2.39,9.52-5.31,11.83-8.08Zm0-15.77c0,.33-.33,7.56-11.83,12.83V90.59c5.83-2.39,9.52-5.32,11.83-8.08Zm0-15.77c0,.33-.33,7.56-11.83,12.84V74.82c5.83-2.39,9.52-5.31,11.83-8.08Zm0,0"/><path class="cls-2" d="M67.64,105V53.8a2,2,0,0,0-3.94,0v3.92c0,.32-.33,7.56-11.83,12.83V45.91a2,2,0,0,0-3.94,0V70.55C36.47,65.3,36.12,58.1,36.11,57.72V53.8a2,2,0,0,0-4,0V105c0,.44.23,10.7,15.77,17.08v16.42H34.13a2,2,0,0,0,0,3.94H57.78a2,2,0,0,0,0-3.94H51.87V122.12c15.54-6.38,15.77-16.64,15.77-17.08ZM51.87,74.82c5.83-2.39,9.52-5.31,11.83-8.08v6.74c0,.33-.33,7.56-11.83,12.84Zm0,15.77c5.83-2.39,9.52-5.32,11.83-8.08v6.74c0,.33-.33,7.56-11.83,12.83Zm0,15.76C57.7,104,61.39,101,63.7,98.27V105c0,.32-.33,7.56-11.83,12.83Zm-3.94,11.5C36.47,112.6,36.12,105.39,36.1,105V98.27c2.31,2.77,6,5.69,11.83,8.08Zm0-15.77C36.47,96.83,36.12,89.63,36.1,89.25V82.51c2.31,2.76,6,5.69,11.83,8.08Zm0-15.76C36.47,81.06,36.12,73.86,36.1,73.49V66.74c2.31,2.77,6,5.69,11.83,8.08Zm0,0"/><path class="cls-2" d="M148.44,138.54H144.5a2,2,0,0,0,0,3.94h3.94a2,2,0,0,0,0-3.94Zm0,0"/></svg>