<svg id="Layer_1" data-name="Layer 1" xmlns="http://www.w3.org/2000/svg" viewBox="0 0 438.33 237.89"><defs><style>.cls-1{fill:#fff;}.cls-2{fill:#47583b;}.cls-3{fill:#d7ab58;}</style></defs><title>Logo_CapimDourado_[horizontal]</title><path class="cls-1" d="M25.32,38.11,24.26,13.19l2.95-3.87,6.68-1.94L40,11.21s1.45,8.17,1.45,8.83V39.3Z"/><polygon class="cls-1" points="12.13 42.49 19.52 39.3 49.85 39.3 54.33 42.49 54.33 195.63 42.2 196.75 40.95 213.51 42.69 226.13 35.34 228.66 27.21 228.66 24.53 223.65 24.26 209.93 25.58 195.63 16.15 195.63 12.13 195.51 11.08 185.14 10.02 74.5 9.13 73.29 9.13 66.17 10.68 49.38 12.13 42.49"/><polygon class="cls-2" points="56.03 195.51 56.03 42.49 417.01 42.49 393.06 119.55 417.01 195.51 56.03 195.51"/><path class="cls-3" d="M243.76,97.41c-2.29,5.8-8.4,8.06-12.34,8.06-6.42,0-9.49-2.86-9.49-10.66s3.77-22.53,15.12-22.53c4.07,0,7.23,1.61,7.23,5.81,0,2.29-.82,4-3,4A3.12,3.12,0,0,1,238.78,81a4.85,4.85,0,0,0,2-4,2.4,2.4,0,0,0-2.64-2.64c-4.77,0-9,11.39-9,20.23,0,4,1,6.76,5.2,6.76A10.52,10.52,0,0,0,242.77,97Z"/><path class="cls-3" d="M263.43,83.11l-3.12,14.73a6,6,0,0,0-.17,1.39c0,1.21.56,1.86,1.77,1.86,1.69,0,2.86-1.91,3.51-4.07h1.82c-2.47,7.06-6.37,8-8.71,8s-4-1.38-4.24-4c-1.34,2-3.38,4-6.46,4s-5.76-1.82-5.76-7c0-5.85,3.6-15.16,11.13-15.16,2.47,0,3.51.95,3.51,2.21v.3l.48-2.3Zm-15,14.34c0,3.34,1.39,3.38,2.17,3.38,1.26,0,3.07-1.3,3.59-3.81l2.08-9.79a1.68,1.68,0,0,0-1.77-1.65C250.86,85.58,248.48,93.38,248.48,97.45Z"/><path class="cls-3" d="M275,81.51l-.69,3.25a7.52,7.52,0,0,1,5.06-1.86c2.95,0,5.29,1.69,5.29,6.84,0,5.85-2.25,15.29-10.66,15.29-2.16,0-3.2-.73-3.68-1.56L268,114l-6.54,1.56,7.23-34.09Zm3.73,8.1c0-3.33-1.39-3.6-2.17-3.6a3.88,3.88,0,0,0-3,2.13L271,100.27a1.61,1.61,0,0,0,1.65,1C277.16,101.26,278.68,93.68,278.68,89.61Z"/><path class="cls-3" d="M294.88,83.11l-3.12,14.73a6.08,6.08,0,0,0-.18,1.39c0,1.21.57,1.6,1.78,1.6,1.69,0,3.25-1.65,3.9-3.81h1.82c-2.47,7.06-6.76,8-9.1,8-2.6,0-4.63-1.56-4.63-5.2a14.64,14.64,0,0,1,.34-2.81l2.95-13.91Zm-1.95-9.22a3.47,3.47,0,0,1,3.46,3.46,3.45,3.45,0,1,1-3.46-3.46Z"/><path class="cls-3" d="M318.87,86.88c-1.55,0-2.72,1.82-3.37,4l-2.95,13.9h-6.24l3.16-14.94a4.28,4.28,0,0,0,.13-1.09c0-.95-.34-1.9-1.29-1.9-1.69,0-2.86,1.86-3.51,4l-2.95,13.9h-6.24l4.59-21.66h6.24L306,85.37a6.65,6.65,0,0,1,5.28-2.47,4.08,4.08,0,0,1,4.46,3.72c2.08-3.2,4.42-3.68,6-3.68,2.78,0,4.81,1.43,4.81,4.89s-2.08,8.75-2.08,11.18c0,1.08.44,1.82,1.74,1.82a2.71,2.71,0,0,0,1.43-.26c-.39,3.12-2.47,4.46-4.77,4.46-3.33,0-4.37-2.42-4.37-4.89,0-3,1.94-8.28,1.94-11C320.43,87.66,319.91,86.88,318.87,86.88Z"/><path class="cls-3" d="M237.48,116.18l-5.2,24.3a4.09,4.09,0,0,0,2.47.87c5.16,0,8.32-10.31,8.32-19.06,0-5.9-2.56-8.19-6.33-8.19-6.45,0-11.35,3.94-11.35,10.52a6.08,6.08,0,0,0,.61,2.95c-2.86,0-4.64-1.08-4.64-4,0-5.93,7.33-11.43,16.12-11.43,8.4,0,11.57,5.84,11.57,12.47,0,10-5.59,20.58-12,20.58a8.14,8.14,0,0,1-5.29-2.3l-.34,1.74h-6.24L231.07,117Z"/><path class="cls-3" d="M266.63,129.48a1.12,1.12,0,0,0,.48.08c2,0,4.81-1.3,6.67-2.6l.39,1.17a13.63,13.63,0,0,1-7.67,3.6c-.69,8-5,13-10.35,13-4,0-6.93-1.91-6.93-6.85s2.94-15.37,11.87-15.37C264.81,122.55,266.63,124.93,266.63,129.48Zm-3.72,2.38c-.91-.22-1.17-1-1.17-1.82a2.38,2.38,0,0,1,1.34-2.34c-.09-1.82-.52-2.51-1.64-2.51-3.08,0-5.77,7.93-5.77,12.17,0,2.86.57,3.51,2.21,3.51C260,140.87,262.22,137,262.91,131.86Z"/><path class="cls-3" d="M288.73,122.94l-3.12,14.72a6.14,6.14,0,0,0-.18,1.39c0,1.21.57,1.6,1.78,1.6,1.69,0,2.86-1.64,3.51-3.81h1.82c-2.47,7.06-6.37,8-8.71,8s-4-1.43-4.29-4.12c-2.16,3.55-4.59,4.12-6.41,4.12-2.6,0-4.63-1.56-4.63-5.2a14.65,14.65,0,0,1,.34-2.82l3-13.9H278l-3.12,14.72a6,6,0,0,0-.13,1.22c0,1,.34,1.77,1.3,1.77,1.69,0,2.81-1.64,3.46-3.81l2.95-13.9Z"/><path class="cls-3" d="M299.9,122.94l-.56,2.68c1.52-1.3,3.16-2.68,5.24-2.68a3.21,3.21,0,0,1-.13,6.41c-2.42,0-1.21-2.86-2.51-2.86s-2.08.65-3.16,1.64l-3.47,16.47h-6.24l4.59-21.66Z"/><path class="cls-3" d="M327.8,122.94l-3.12,14.72a6.05,6.05,0,0,0-.17,1.39c0,1.21.56,1.86,1.77,1.86,1.69,0,2.86-1.9,3.51-4.07h1.82c-2.47,7.06-6.37,8-8.7,8s-4-1.39-4.25-4c-1.34,2-3.38,4-6.46,4s-5.76-1.82-5.76-7c0-5.85,3.6-15.16,11.14-15.16,2.47,0,3.51,1,3.51,2.21v.3l.47-2.29Zm-14.94,14.33c0,3.34,1.38,3.38,2.16,3.38,1.26,0,3.08-1.3,3.6-3.81l2.08-9.79a1.68,1.68,0,0,0-1.78-1.64C315.24,125.41,312.86,133.2,312.86,137.27Z"/><path class="cls-3" d="M352.41,114.27l-5,23.39a6.05,6.05,0,0,0-.17,1.39c0,1.21.56,1.6,1.78,1.6,1.69,0,2.85-1.64,3.5-3.81h1.82c-2.47,7.06-6.36,7.76-8.7,7.76a4,4,0,0,1-4.25-3.73c-1.3,2-3.33,4-6.41,4s-5.76-1.82-5.76-7c0-5.85,3.59-15.16,11.13-15.16,2.47,0,3.51,1,3.51,2.21v.17l2.12-10Zm-11.05,22.57,2.12-9.92a1.72,1.72,0,0,0-1.78-1.51c-3.68,0-6.06,7.79-6.06,11.86,0,3.34,1.39,3.38,2.17,3.38,1.21,0,3-1.21,3.55-3.59Z"/><path class="cls-3" d="M369.17,128.39c1.52-.3,2.6-2.16,3.07-3h1.39c-.87,1.86-2.17,4.54-4.46,5.8-.52,8.32-4.85,13.56-10.31,13.56-4,0-6.93-1.91-6.93-6.85s2.81-15.37,11.74-15.37C367.09,122.55,368.91,124.54,369.17,128.39Zm-3.68,3.47c-.7-.26-1-.87-1-2a2.26,2.26,0,0,1,1.21-2.25c-.09-1.82-.56-2.47-1.65-2.47-3.07,0-5.63,7.93-5.63,12.17,0,2.86.57,3.51,2.21,3.51C362.71,140.87,364.84,137,365.49,131.86Z"/><path class="cls-3" d="M201.06,80.12a2.1,2.1,0,0,0-2.1,2.1v4.17c0,.34-.35,8-12.58,13.65V73.83a2.1,2.1,0,0,0-4.2,0V100C170,94.46,169.61,86.79,169.6,86.39V82.22a2.1,2.1,0,0,0-4.2,0v54.53c0,.47.25,11.39,16.78,18.18V172.4H142.33V150.73c16.53-6.78,16.78-17.7,16.78-18.18V61.24a2.1,2.1,0,0,0-4.19,0v4.17c0,.35-.35,8-12.59,13.66V52.85a2.1,2.1,0,0,0-4.19,0V79.07c-12.2-5.59-12.58-13.25-12.59-13.65V61.24a2.1,2.1,0,0,0-4.19,0v71.31c0,.48.24,11.4,16.78,18.18V172.4H113a2.1,2.1,0,0,0,0,4.2h75.5a2.1,2.1,0,0,0,0-4.2h-2.09V154.93c16.53-6.79,16.78-17.71,16.78-18.18V82.22a2.1,2.1,0,0,0-2.1-2.1Zm-58.73,3.5c6.2-2.55,10.13-5.66,12.59-8.6v7.17c0,.35-.35,8-12.59,13.66Zm0,16.77c6.2-2.54,10.13-5.65,12.59-8.59V99c0,.35-.35,8-12.59,13.66Zm0,16.78c6.2-2.54,10.13-5.65,12.59-8.59v7.17c0,.35-.35,8-12.59,13.66Zm0,16.78c6.2-2.54,10.13-5.65,12.59-8.59v7.17c0,.35-.35,8.05-12.59,13.66Zm-4.19,12.24c-12.2-5.59-12.58-13.26-12.59-13.65v-7.18c2.46,2.94,6.39,6,12.59,8.59Zm0-16.78c-12.2-5.59-12.58-13.26-12.59-13.65v-7.18c2.46,2.94,6.39,6,12.59,8.59Zm0-16.78C125.94,107,125.56,99.38,125.55,99V91.8c2.46,2.94,6.39,6,12.59,8.59Zm0-16.78c-12.2-5.59-12.58-13.25-12.59-13.65V75c2.46,2.94,6.39,6,12.59,8.6Zm44,54.53c-12.19-5.59-12.57-13.25-12.58-13.65v-7.18c2.45,2.94,6.38,6,12.58,8.6Zm0-16.78C170,128,169.61,120.35,169.6,120v-7.18c2.45,2.94,6.38,6.06,12.58,8.6Zm0-16.78c-12.19-5.59-12.57-13.25-12.58-13.65V96c2.45,2.94,6.38,6.05,12.58,8.6ZM199,136.73c0,.34-.35,8-12.58,13.65V138.15c6.2-2.55,10.13-5.66,12.58-8.6ZM199,120c0,.34-.35,8-12.58,13.65V121.37c6.2-2.54,10.13-5.66,12.58-8.6Zm0-16.78c0,.34-.35,8-12.58,13.65V104.59c6.2-2.55,10.13-5.66,12.58-8.6Zm0,0"/><path class="cls-3" d="M115.06,136.75V82.22a2.1,2.1,0,1,0-4.19,0v4.17c0,.34-.35,8-12.58,13.65V73.83a2.1,2.1,0,0,0-4.2,0V100C81.9,94.46,81.52,86.79,81.51,86.39V82.22a2.1,2.1,0,0,0-4.2,0v54.53c0,.47.25,11.39,16.78,18.18V172.4H79.41a2.1,2.1,0,0,0,0,4.2h25.17a2.1,2.1,0,1,0,0-4.2H98.29V154.93c16.53-6.79,16.77-17.71,16.77-18.18ZM98.29,104.59c6.2-2.55,10.12-5.66,12.58-8.6v7.18c0,.34-.35,8-12.58,13.65Zm0,16.78c6.2-2.54,10.12-5.66,12.58-8.6V120c0,.34-.35,8-12.58,13.65Zm0,16.78c6.2-2.55,10.12-5.66,12.58-8.6v7.18c0,.34-.35,8-12.58,13.65Zm-4.2,12.23c-12.19-5.59-12.57-13.25-12.58-13.65v-7.18c2.45,2.94,6.38,6,12.58,8.6Zm0-16.78C81.9,128,81.52,120.35,81.51,120v-7.18c2.45,2.94,6.38,6.06,12.58,8.6Zm0-16.78c-12.19-5.59-12.57-13.25-12.58-13.65V96c2.45,2.94,6.38,6.05,12.58,8.6Zm0,0"/><path class="cls-3" d="M201.06,172.4h-4.2a2.1,2.1,0,0,0,0,4.2h4.2a2.1,2.1,0,0,0,0-4.2Zm0,0"/><path class="cls-3" d="M44.44,194.36H18.83A4.37,4.37,0,0,1,14.47,190V73.29H9.13V192.42a7.28,7.28,0,0,0,7.28,7.28h5.46v22.09a10.87,10.87,0,0,0,18.55,7.68h0a10.79,10.79,0,0,0,3.18-7.68V199.7h6.93a5.83,5.83,0,0,0,5.82-5.83V44.22a7.28,7.28,0,0,0-7.28-7.28H43.6V14.85A10.87,10.87,0,0,0,33.08,4a11,11,0,0,0-7.84,3,10.82,10.82,0,0,0-3.37,7.87V36.94H16.41a7.28,7.28,0,0,0-7.28,7.28v22h5.34V46.64a4.36,4.36,0,0,1,4.36-4.36H48.7c2.41,0,2.31,1.95,2.31,4.36V190.13c0,2.34.16,4.23-2.18,4.23h-1.1m-9.46,27.3a5.61,5.61,0,0,1-.94,3.21,5.53,5.53,0,0,1-10.12-3.08V199.7H38.27ZM38.26,15v22H27.21V15a5.68,5.68,0,0,1,.93-3.21,5.53,5.53,0,0,1,9.19,0A5.6,5.6,0,0,1,38.26,15Z"/><polygon class="cls-3" points="43.62 126.65 43.62 148.91 43.62 148.91 38.29 148.91 38.28 148.91 38.28 126.65 38.29 126.65 43.62 126.65 43.62 126.65"/><polygon class="cls-3" points="43.62 155.97 43.62 195.63 43.62 195.63 38.29 195.63 38.28 195.63 38.28 155.97 38.29 155.97 43.62 155.97 43.62 155.97"/><polygon class="cls-3" points="416.28 195.51 432.25 195.51 409.04 119.55 432.25 42.49 416.28 42.49 393.06 119.55 416.28 195.51"/><path class="cls-1" d="M226.38,161.82l.39,0h.9a2.78,2.78,0,0,1,.37,0l4.87,14.58a1.46,1.46,0,0,1-.34,0l-.43,0-.38,0a1.75,1.75,0,0,1-.35,0l-1.21-3.71h-6L223,176.4a2.05,2.05,0,0,1-.37,0l-.4,0-.41,0a1.46,1.46,0,0,1-.34,0Zm3.41,9.57-2.62-8.11-2.57,8.11Z"/><path class="cls-1" d="M236.42,163.07h-3.91a1.23,1.23,0,0,1,0-.29c0-.12,0-.23,0-.34s0-.2,0-.32a1.26,1.26,0,0,1,0-.3h9.23c0,.08,0,.17,0,.28s0,.22,0,.32,0,.21,0,.34,0,.23,0,.31h-3.92V176.4a1.51,1.51,0,0,1-.32,0l-.37,0-.39,0a1.45,1.45,0,0,1-.32,0Z"/><path class="cls-1" d="M244.2,161.82H252c0,.08,0,.17,0,.29s0,.23,0,.33,0,.21,0,.34,0,.23,0,.31H245.6V168h5.15c0,.09,0,.18,0,.3s0,.22,0,.33,0,.21,0,.34,0,.23,0,.31H245.6v5.83h6.59c0,.08,0,.18,0,.29s0,.23,0,.33,0,.21,0,.34,0,.23,0,.31h-8Z"/><path class="cls-1" d="M255.15,161.82l.32,0h.76l.32,0v13.31h6.23a2.16,2.16,0,0,1,0,.31c0,.13,0,.24,0,.34s0,.21,0,.33a2,2,0,0,1,0,.29h-7.63Z"/><path class="cls-1" d="M265.24,161.82l.34,0h.73l.33,0V176.4a1.69,1.69,0,0,1-.33,0l-.36,0-.4,0a1.3,1.3,0,0,1-.31,0Z"/><path class="cls-1" d="M270.74,161.82h7.81c0,.08,0,.17,0,.29s0,.23,0,.33,0,.21,0,.34,0,.23,0,.31h-6.41V168h5.15c0,.09,0,.18,0,.3s0,.22,0,.33,0,.21,0,.34,0,.23,0,.31h-5.15v5.83h6.59c0,.08,0,.18,0,.29s0,.23,0,.33,0,.21,0,.34,0,.23,0,.31h-8Z"/><path class="cls-1" d="M281.69,161.75l.78-.07.65-.06.66,0h.81a8.82,8.82,0,0,1,1.92.21,4.91,4.91,0,0,1,1.7.69,3.7,3.7,0,0,1,1.2,1.34,4.38,4.38,0,0,1,.46,2.12,3.52,3.52,0,0,1-.28,1.44,4.18,4.18,0,0,1-.75,1.17,4.51,4.51,0,0,1-1,.89,7.09,7.09,0,0,1-1.23.62l-.16.06,4.65,6.29a1.92,1.92,0,0,1-.41,0h-.8a1.9,1.9,0,0,1-.4,0l-5.11-6.75v-.08l.45-.13a9.26,9.26,0,0,0,1.34-.47,5.37,5.37,0,0,0,1.14-.71,3.32,3.32,0,0,0,.8-1,2.68,2.68,0,0,0,.31-1.34,2.88,2.88,0,0,0-1-2.37,4,4,0,0,0-2.63-.79l-.79,0c-.25,0-.54,0-.88.08V176.4a1.65,1.65,0,0,1-.34,0l-.37,0-.36,0a1.69,1.69,0,0,1-.33,0Z"/><path class="cls-1" d="M298.68,161.82l.69-.09.89-.07.93,0,.85,0a9.53,9.53,0,0,1,3.32.52,6,6,0,0,1,2.33,1.48,5.87,5.87,0,0,1,1.37,2.35,10.22,10.22,0,0,1,.45,3.14q0,7.56-7.47,7.57l-.91,0-.94,0c-.31,0-.59-.05-.86-.09l-.65-.09Zm1.39,13.37.87.08c.33,0,.67,0,1,0a9.38,9.38,0,0,0,2.53-.31,4.47,4.47,0,0,0,1.92-1,4.73,4.73,0,0,0,1.21-1.94,9,9,0,0,0,.43-3,6,6,0,0,0-1.61-4.62,6.42,6.42,0,0,0-4.48-1.47l-1,0a8.34,8.34,0,0,0-.89.08Z"/><path class="cls-1" d="M312.86,161.82h7.81c0,.08,0,.17,0,.29s0,.23,0,.33,0,.21,0,.34,0,.23,0,.31h-6.41V168h5.15a2.33,2.33,0,0,1,0,.3c0,.11,0,.22,0,.33s0,.21,0,.34a2.16,2.16,0,0,1,0,.31h-5.15v5.83h6.59a2.16,2.16,0,0,1,0,.29c0,.11,0,.23,0,.33s0,.21,0,.34a2.16,2.16,0,0,1,0,.31h-8Z"/><path class="cls-1" d="M328.89,161.82l.56-.08.81-.08.89-.06.82,0a8.57,8.57,0,0,1,2.17.25,4.64,4.64,0,0,1,1.68.77A3.59,3.59,0,0,1,336.9,164a4.8,4.8,0,0,1,.39,2,5.08,5.08,0,0,1-.44,2.2,3.94,3.94,0,0,1-1.18,1.48,4.83,4.83,0,0,1-1.72.83,7.76,7.76,0,0,1-2.06.26c-.31,0-.58,0-.81,0l-.79-.06v5.72a1.69,1.69,0,0,1-.33,0l-.36,0-.4,0a1.3,1.3,0,0,1-.31,0Zm1.4,7.56.35,0,.31,0,.34,0h.5a8.57,8.57,0,0,0,1.44-.12,3.42,3.42,0,0,0,1.29-.49,2.84,2.84,0,0,0,.93-1.06,3.84,3.84,0,0,0,.36-1.8,3.63,3.63,0,0,0-.28-1.49,2.37,2.37,0,0,0-.78-1,3.42,3.42,0,0,0-1.24-.53,7.29,7.29,0,0,0-1.62-.16q-.52,0-.93,0c-.27,0-.5,0-.67.07Z"/><path class="cls-1" d="M342.44,161.82a2.77,2.77,0,0,1,.39,0h.9a2.78,2.78,0,0,1,.37,0L349,176.4a1.46,1.46,0,0,1-.34,0l-.43,0-.38,0a1.75,1.75,0,0,1-.35,0l-1.22-3.71h-6l-1.16,3.71a2.05,2.05,0,0,1-.37,0l-.4,0-.41,0a1.46,1.46,0,0,1-.34,0Zm-.75-2.56a1.39,1.39,0,0,0-.75.18,5.48,5.48,0,0,0-.63.49,2.74,2.74,0,0,1-.51-.89,4.47,4.47,0,0,1,.79-.64,2,2,0,0,1,1.08-.32,2.41,2.41,0,0,1,.9.18l.89.4.86.39a2.19,2.19,0,0,0,.82.17,1.29,1.29,0,0,0,.68-.17,5.44,5.44,0,0,0,.64-.52,3.14,3.14,0,0,1,.28.46,4,4,0,0,1,.22.47,5,5,0,0,1-.8.6,2,2,0,0,1-1.08.29,2.26,2.26,0,0,1-.88-.17c-.3-.11-.59-.24-.88-.37l-.84-.38A2.08,2.08,0,0,0,341.69,159.26Zm4.16,12.13-2.62-8.11-2.57,8.11Z"/><path class="cls-1" d="M351.43,161.82h7.81c0,.08,0,.17,0,.29s0,.23,0,.33,0,.21,0,.34,0,.23,0,.31h-6.41V168H358a1.32,1.32,0,0,1,0,.3c0,.11,0,.22,0,.33s0,.21,0,.34a1.3,1.3,0,0,1,0,.31h-5.15v5.83h6.59a1.23,1.23,0,0,1,0,.29c0,.11,0,.23,0,.33s0,.21,0,.34a1.3,1.3,0,0,1,0,.31h-8Z"/><path class="cls-1" d="M361.84,174.78l.59.18c.2.07.43.13.68.19s.53.1.84.14a8.49,8.49,0,0,0,1.07.06,5.54,5.54,0,0,0,1.68-.23,3.5,3.5,0,0,0,1.15-.63,2.49,2.49,0,0,0,.68-.94,2.93,2.93,0,0,0,.23-1.16,3.24,3.24,0,0,0-.15-1,2.15,2.15,0,0,0-.53-.8,4.26,4.26,0,0,0-1-.7q-.66-.33-1.65-.72-.7-.27-1.35-.57a4.7,4.7,0,0,1-1.13-.74,3.32,3.32,0,0,1-.77-1,3.64,3.64,0,0,1-.28-1.53,3.29,3.29,0,0,1,1.19-2.65,5.15,5.15,0,0,1,3.45-1c.3,0,.6,0,.91,0l.85.1a6.69,6.69,0,0,1,.73.15l.54.14c0,.2-.07.41-.11.62a5.26,5.26,0,0,1-.18.6,9.22,9.22,0,0,0-2.75-.43,3.46,3.46,0,0,0-2.42.69,2.28,2.28,0,0,0-.73,1.74,2,2,0,0,0,.22,1,2.32,2.32,0,0,0,.62.71,5.56,5.56,0,0,0,.94.56c.37.17.76.33,1.18.49s1.1.47,1.6.71a5.37,5.37,0,0,1,1.26.86,3.49,3.49,0,0,1,.83,1.14,3.67,3.67,0,0,1,.31,1.59,4.48,4.48,0,0,1-.38,1.88,3.71,3.71,0,0,1-1.06,1.38,4.71,4.71,0,0,1-1.69.85,7.67,7.67,0,0,1-2.23.3,10,10,0,0,1-2-.17c-.52-.12-1-.25-1.48-.4,0-.2.08-.42.14-.66A5.85,5.85,0,0,1,361.84,174.78Z"/></svg>